<svg xmlns="http://www.w3.org/2000/svg" viewBox="0 0 16 16" shape-rendering="crispEdges">
<rect x="2" y="0" width="12" height="1" fill="#5AA0AA"/>
<rect x="1" y="1" width="3" height="1" fill="#5AA0AA"/>
<rect x="4" y="1" width="8" height="1" fill="#3C6E78"/>
<rect x="12" y="1" width="3" height="1" fill="#5AA0AA"/>
<rect x="0" y="2" width="2" height="1" fill="#5AA0AA"/>
<rect x="2" y="2" width="12" height="1" fill="#3C6E78"/>
<rect x="14" y="2" width="2" height="1" fill="#5AA0AA"/>
<rect x="0" y="3" width="1" height="1" fill="#5AA0AA"/>
<rect x="1" y="3" width="14" height="1" fill="#3C6E78"/>
<rect x="15" y="3" width="1" height="1" fill="#5AA0AA"/>
<rect x="0" y="4" width="1" height="1" fill="#5AA0AA"/>
<rect x="1" y="4" width="1" height="1" fill="#3C6E78"/>
<rect x="2" y="4" width="11" height="1" fill="#C8A888"/>
<rect x="13" y="4" width="2" height="1" fill="#3C6E78"/>
<rect x="15" y="4" width="1" height="1" fill="#5AA0AA"/>
<rect x="0" y="5" width="1" height="1" fill="#5AA0AA"/>
<rect x="1" y="5" width="1" height="1" fill="#3C6E78"/>
<rect x="2" y="5" width="2" height="1" fill="#C8A888"/>
<rect x="4" y="5" width="8" height="1" fill="#10262B"/>
<rect x="12" y="5" width="2" height="1" fill="#C8A888"/>
<rect x="14" y="5" width="1" height="1" fill="#3C6E78"/>
<rect x="15" y="5" width="1" height="1" fill="#5AA0AA"/>
<rect x="0" y="6" width="1" height="1" fill="#5AA0AA"/>
<rect x="1" y="6" width="1" height="1" fill="#3C6E78"/>
<rect x="2" y="6" width="2" height="1" fill="#C8A888"/>
<rect x="4" y="6" width="1" height="1" fill="#10262B"/>
<rect x="5" y="6" width="1" height="1" fill="#9CD0DA"/>
<rect x="6" y="6" width="2" height="1" fill="#10262B"/>
<rect x="8" y="6" width="1" height="1" fill="#9CD0DA"/>
<rect x="9" y="6" width="3" height="1" fill="#10262B"/>
<rect x="12" y="6" width="2" height="1" fill="#C8A888"/>
<rect x="14" y="6" width="1" height="1" fill="#3C6E78"/>
<rect x="15" y="6" width="1" height="1" fill="#5AA0AA"/>
<rect x="0" y="7" width="1" height="1" fill="#5AA0AA"/>
<rect x="1" y="7" width="1" height="1" fill="#3C6E78"/>
<rect x="2" y="7" width="2" height="1" fill="#C8A888"/>
<rect x="4" y="7" width="8" height="1" fill="#10262B"/>
<rect x="12" y="7" width="2" height="1" fill="#C8A888"/>
<rect x="14" y="7" width="1" height="1" fill="#3C6E78"/>
<rect x="15" y="7" width="1" height="1" fill="#5AA0AA"/>
<rect x="0" y="8" width="1" height="1" fill="#5AA0AA"/>
<rect x="1" y="8" width="3" height="1" fill="#3C6E78"/>
<rect x="4" y="8" width="8" height="1" fill="#10262B"/>
<rect x="12" y="8" width="3" height="1" fill="#3C6E78"/>
<rect x="15" y="8" width="1" height="1" fill="#5AA0AA"/>
<rect x="1" y="9" width="2" height="1" fill="#5AA0AA"/>
<rect x="3" y="9" width="10" height="1" fill="#3C6E78"/>
<rect x="13" y="9" width="2" height="1" fill="#5AA0AA"/>
<rect x="2" y="10" width="1" height="1" fill="#5AA0AA"/>
<rect x="4" y="10" width="8" height="1" fill="#3C6E78"/>
<rect x="13" y="10" width="1" height="1" fill="#5AA0AA"/>
<rect x="4" y="11" width="8" height="1" fill="#3C6E78"/>
<rect x="1" y="12" width="14" height="1" fill="#3C6E78"/>
<rect x="0" y="13" width="16" height="1" fill="#3C6E78"/>
<rect x="0" y="14" width="16" height="1" fill="#3C6E78"/>
<rect x="0" y="15" width="16" height="1" fill="#3C6E78"/>
</svg>
