<svg xmlns="http://www.w3.org/2000/svg" viewBox="0 0 16 22" shape-rendering="crispEdges">
<rect x="4" y="0" width="8" height="1" fill="#C9C2B0"/>
<rect x="2" y="1" width="12" height="1" fill="#C9C2B0"/>
<rect x="1" y="2" width="14" height="1" fill="#C9C2B0"/>
<rect x="1" y="3" width="3" height="1" fill="#C9C2B0"/>
<rect x="4" y="3" width="8" height="1" fill="#3A3F52"/>
<rect x="12" y="3" width="3" height="1" fill="#C9C2B0"/>
<rect x="1" y="4" width="3" height="1" fill="#C9C2B0"/>
<rect x="4" y="4" width="2" height="1" fill="#3A3F52"/>
<rect x="6" y="4" width="2" height="1" fill="#F5F2EA"/>
<rect x="9" y="4" width="3" height="1" fill="#3A3F52"/>
<rect x="12" y="4" width="3" height="1" fill="#C9C2B0"/>
<rect x="1" y="5" width="3" height="1" fill="#C9C2B0"/>
<rect x="4" y="5" width="8" height="1" fill="#3A3F52"/>
<rect x="12" y="5" width="3" height="1" fill="#C9C2B0"/>
<rect x="1" y="6" width="5" height="1" fill="#C9C2B0"/>
<rect x="6" y="6" width="1" height="1" fill="#3A3F52"/>
<rect x="7" y="6" width="2" height="1" fill="#C9C2B0"/>
<rect x="9" y="6" width="1" height="1" fill="#3A3F52"/>
<rect x="10" y="6" width="5" height="1" fill="#C9C2B0"/>
<rect x="1" y="7" width="6" height="1" fill="#C9C2B0"/>
<rect x="7" y="7" width="2" height="1" fill="#3A3F52"/>
<rect x="9" y="7" width="6" height="1" fill="#C9C2B0"/>
<rect x="2" y="8" width="12" height="1" fill="#C9C2B0"/>
<rect x="3" y="9" width="10" height="1" fill="#C9C2B0"/>
<rect x="4" y="10" width="8" height="1" fill="#C9C2B0"/>
<rect x="4" y="11" width="8" height="1" fill="#C9C2B0"/>
<rect x="1" y="12" width="14" height="1" fill="#C9C2B0"/>
<rect x="0" y="13" width="16" height="1" fill="#C9C2B0"/>
<rect x="0" y="14" width="1" height="1" fill="#C9C2B0"/>
<rect x="1" y="14" width="14" height="1" fill="#E7E1D4"/>
<rect x="15" y="14" width="1" height="1" fill="#C9C2B0"/>
<rect x="0" y="15" width="16" height="1" fill="#C9C2B0"/>
<rect x="1" y="16" width="2" height="1" fill="#C9C2B0"/>
<rect x="4" y="16" width="8" height="1" fill="#C9C2B0"/>
<rect x="13" y="16" width="2" height="1" fill="#C9C2B0"/>
<rect x="2" y="17" width="12" height="1" fill="#C9C2B0"/>
<rect x="3" y="18" width="4" height="1" fill="#C9C2B0"/>
<rect x="9" y="18" width="4" height="1" fill="#C9C2B0"/>
<rect x="3" y="19" width="4" height="1" fill="#3A3F52"/>
<rect x="9" y="19" width="4" height="1" fill="#3A3F52"/>
<rect x="3" y="20" width="4" height="1" fill="#3A3F52"/>
<rect x="9" y="20" width="4" height="1" fill="#3A3F52"/>
<rect x="3" y="21" width="4" height="1" fill="#3A3F52"/>
<rect x="9" y="21" width="4" height="1" fill="#3A3F52"/>
</svg>
